<?xml version="1.0" encoding="utf-8"?>
<svg id="master-artboard" viewBox="0 0 1400 980" version="1.1" xmlns="http://www.w3.org/2000/svg" x="0px" y="0px" style="enable-background:new 0 0 1400 980;" width="1400px" height="980px">

<path d="M 0 0 H 1400 V 980 H 0 V 0 Z" id="XMLID_25_" class="st0" style="fill: rgb(93, 198, 198);" transform="matrix(1, 0, 0, 1, -2.842170943040401e-14, 0)"/>
<g id="XMLID_213_" transform="matrix(1, 0, 0, 1, -2.842170943040401e-14, 0)">
		<text id="XMLID_112_" transform="matrix(1 0 0 1 408.5029 551.9142)" class="st1 st2 st3" style="white-space: pre;  fill: rgb(31, 188, 184);  font-family: 'Geometos';  font-size: 137.426px; ;  font-weight: Geometos">@</text>
	</g><text id="XMLID_110_" transform="matrix(1, 0, 0, 1, 976.6334228515624, 408.3904113769531)" class="st1 st2 st4" style="white-space: pre;  fill: rgb(31, 188, 184);  font-family: 'Geometos';  font-size: 90.0525px; ;  font-weight: Geometos">@</text><text id="XMLID_108_" transform="matrix(1, 0, 0, 1, 319.1304931640625, 815.9166259765625)" class="st1 st2 st4" style="white-space: pre;  fill: rgb(31, 188, 184);  font-family: 'Geometos';  font-size: 90.0525px; ;  font-weight: Geometos">@</text><text id="XMLID_105_" transform="matrix(1, 0, 0, 1, 408.50311279296875, 325.9424133300781)" class="st1 st2 st5" style="white-space: pre;  fill: rgb(31, 188, 184);  font-family: 'Geometos';  font-size: 194.205px; ;  font-weight: Geometos">?</text><text id="XMLID_103_" transform="matrix(1, 0, 0, 1, 796.5419921875001, 480.26150512695307)" class="st1 st2 st6" style="white-space: pre;  fill: rgb(31, 188, 184);  font-family: 'Geometos';  font-size: 116.509px; ;  font-weight: Geometos">?</text><text id="XMLID_101_" transform="matrix(1, 0, 0, 1, 894.5128784179686, 814.412109375)" class="st1 st2 st6" style="white-space: pre;  fill: rgb(31, 188, 184);  font-family: 'Geometos';  font-size: 116.509px; ;  font-weight: Geometos">?</text><path id="XMLID_82_" class="st7" d="M1135.8,487.5c-8.7,8.7-24.6,12.6-33,1.8c0.1,0,0.2,0,0.3,0c9.3,1,21.5-7.5,16.3-18&#10;&#9;&#9;&#9;c-2-4-6.3-6.6-10.7-6.5c-5.2,0.2-9.5,4.2-12.3,8.2c-1.5,2.1-2.3,4.3-2.6,6.5c-8.3-5.7-12.1-16.9-8.1-27c1.7-4.2,4.7-8.1,8.7-10.2&#10;&#9;&#9;&#9;c-0.2,0.7-0.4,1.4-0.5,2.2c-0.8,4.6-0.7,9.8,3.1,13c3.2,2.8,8,3.1,11.8,1.4c4.3-1.9,8.1-6.5,9-11.2c0.9-4.4-2.2-8-5.7-10.3&#10;&#9;&#9;&#9;c-2.2-1.5-4.7-2.3-7.2-2.7c2.8-3.4,6.4-6.1,10.6-7.9c3.6-1.6,0.5-6.8-3.1-5.2c-6.2,2.7-11.6,7.5-15,13.3&#10;&#9;&#9;&#9;c-4.3,0.9-8.4,3.1-11.5,6.3c-7.4,7.6-10.4,20.1-6.4,30c2.7,6.7,8.4,12.5,15.1,15.6c2,5.5,6.8,10.3,12.2,12.8&#10;&#9;&#9;&#9;c11.6,5.4,24.7,0.6,33.3-8C1142.8,489,1138.5,484.7,1135.8,487.5z M1110.2,450c-1.9,2.9-6.8,6-9.6,2.6c-2.3-2.7-0.9-7.5,0.2-10.6&#10;&#9;&#9;&#9;c0.2-0.4,0.3-0.9,0.5-1.3C1106.9,440.8,1114.3,443.8,1110.2,450z M1100.4,477.9c1.5-2.9,5.3-7.2,8.8-7c4,0.2,6.1,4.3,4.4,7.7&#10;&#9;&#9;&#9;c-1.9,3.9-6.2,5.1-10.2,4.6c-1.3-0.2-2.6-0.4-3.8-0.8C1099.4,480.9,1099.6,479.4,1100.4,477.9z" style="fill: rgb(235, 139, 35);" transform="matrix(1, 0, 0, 1, -5.684341886080802e-14, 0)"/><path id="XMLID_42_" class="st8" d="M1139.6,465.8l-6.2,23.2c-3.6,13.1,6.3,26.1,20,26.1h70.2V401.6l0,0&#10;&#9;&#9;&#9;C1184.3,401.6,1149.8,427.9,1139.6,465.8z" style="fill: rgb(242, 186, 26);" transform="matrix(1, 0, 0, 1, -5.684341886080802e-14, 0)"/><path id="XMLID_41_" class="st7" d="M1293.7,515.1c13.6,0,23.5-12.9,20-26.1l-6.2-23.2c-10.2-37.9-44.7-64.2-83.9-64.2l0,0v113.5&#10;&#9;&#9;&#9;H1293.7z" style="fill: rgb(235, 139, 35);" transform="matrix(1, 0, 0, 1, -5.684341886080802e-14, 0)"/><path id="XMLID_40_" class="st7" d="M1317,374.2c-35.4-18.5-93.5-18.5-93.5-18.5v27.4c21,0.3,44.9,7,56.2,10.5c3,1,5.3,3.5,6,6.4&#10;&#9;&#9;&#9;c3.8,3.2,12.3,9.7,24.9,15.5c12.4,5.8,26.2,7.6,31.4,8.2c0.4-0.9,0.8-1.8,1-2.9C1345.5,408.2,1339.1,385.8,1317,374.2z" style="fill: rgb(235, 139, 35);" transform="matrix(1, 0, 0, 1, -5.684341886080802e-14, 0)"/><path id="XMLID_39_" class="st8" d="M1130.1,374.2c-22.1,11.5-28.5,33.9-26.1,46.8c0.2,1,0.5,1.9,1,2.8c5.4-0.5,19.1-2.4,31.5-8.2&#10;&#9;&#9;&#9;c13-6.1,21.6-13,25.1-16.1c0.9-2.8,3-4.9,5.8-5.9c11.3-3.6,35.2-10.2,56.2-10.5v-27.3C1223.5,355.7,1165.5,355.7,1130.1,374.2z" style="fill: rgb(242, 186, 26);" transform="matrix(1, 0, 0, 1, -5.684341886080802e-14, 0)"/><path d="M 1256.599998 463.100006 A 33.099998 33.099998 0 0 1 1223.5 496.200005 A 33.099998 33.099998 0 0 1 1190.400002 463.100006 A 33.099998 33.099998 0 0 1 1223.5 430.000008 A 33.099998 33.099998 0 0 1 1256.599998 463.100006 Z" id="XMLID_35_" class="st9" style="fill: rgb(50, 86, 120);" transform="matrix(1, 0, 0, 1, -5.684341886080802e-14, 0)"/><path id="XMLID_34_" class="st10" d="M1154.4,464.1L1154.4,464.1c-1.4-0.5-2.1-2.1-1.5-3.5c12.7-31.2,37.1-41.9,45.2-44.7&#10;&#9;&#9;&#9;&#9;c1.5-0.5,3,0.3,3.4,1.8l0.6,2.4l-0.6-2.5v0.2c0.3,1.3-0.4,2.6-1.6,3c-7.3,2.6-30.3,12.8-42.1,41.7&#10;&#9;&#9;&#9;&#9;C1157.2,463.9,1155.7,464.6,1154.4,464.1z" style="fill: rgb(255, 255, 255);" transform="matrix(1, 0, 0, 1, -8.526512829121202e-14, 0)"/><path id="XMLID_32_" class="st9" d="M1105,423.9c1.6,3.1,4.9,5.1,8.7,5.3c9.3,0.3,27-1.9,44.3-18.7c2.2-2.1,3.3-4.9,3.1-7.9&#10;&#9;&#9;&#9;c0-1,0.1-2,0.3-3c-3.5,3.1-12,10.1-25.1,16.1C1124.1,421.4,1110.3,423.3,1105,423.9z" style="fill: rgb(50, 86, 120);" transform="matrix(1, 0, 0, 1, -5.684341886080802e-14, 0)"/><path id="XMLID_31_" class="st9" d="M1310.7,415.7c-12.6-5.8-21.2-12.3-24.9-15.5c0.2,0.8,0.3,1.6,0.3,2.3c-0.1,3,1,5.9,3.1,7.9&#10;&#9;&#9;&#9;c17.4,16.7,35.1,18.9,44.3,18.7c3.6-0.1,6.9-2.2,8.7-5.3C1336.9,423.3,1323.1,421.5,1310.7,415.7z" style="fill: rgb(50, 86, 120);" transform="matrix(1, 0, 0, 1, -5.684341886080802e-14, 0)"/><path id="XMLID_30_" class="st10" d="M1151.3,471.3c-3.4,0-3.4,5.2,0,5.2S1154.7,471.3,1151.3,471.3z" style="fill: rgb(255, 255, 255);" transform="matrix(1, 0, 0, 1, -5.684341886080802e-14, 0)"/><path d="M 1226.2 436.399994 A 2.7 2.7 0 0 1 1223.5 439.099994 A 2.7 2.7 0 0 1 1220.8 436.399994 A 2.7 2.7 0 0 1 1223.5 433.699994 A 2.7 2.7 0 0 1 1226.2 436.399994 Z" id="XMLID_43_" class="st10" style="fill: rgb(255, 255, 255);" transform="matrix(1, 0, 0, 1, -5.684341886080802e-14, 0)"/><path d="M 1226.399951 489.5 A 2.7 2.7 0 0 1 1223.699951 492.2 A 2.7 2.7 0 0 1 1220.999951 489.5 A 2.7 2.7 0 0 1 1223.699951 486.8 A 2.7 2.7 0 0 1 1226.399951 489.5 Z" id="XMLID_55_" class="st10" style="fill: rgb(255, 255, 255);" transform="matrix(1, 0, 0, 1, -5.684341886080802e-14, 0)"/><path d="M 1246.2 480.299988 A 2.7 2.7 0 0 1 1243.5 482.999988 A 2.7 2.7 0 0 1 1240.8 480.299988 A 2.7 2.7 0 0 1 1243.5 477.599988 A 2.7 2.7 0 0 1 1246.2 480.299988 Z" id="XMLID_73_" class="st10" style="fill: rgb(255, 255, 255);" transform="matrix(1, 0, 0, 1, -5.684341886080802e-14, 0)"/><path d="M 1207.600024 480.299988 A 2.7 2.7 0 0 1 1204.900024 482.999988 A 2.7 2.7 0 0 1 1202.200024 480.299988 A 2.7 2.7 0 0 1 1204.900024 477.599988 A 2.7 2.7 0 0 1 1207.600024 480.299988 Z" id="XMLID_56_" class="st10" style="fill: rgb(255, 255, 255);" transform="matrix(1, 0, 0, 1, -5.684341886080802e-14, 0)"/><path d="M 1207.600024 444.299988 A 2.7 2.7 0 0 1 1204.900024 446.999988 A 2.7 2.7 0 0 1 1202.200024 444.299988 A 2.7 2.7 0 0 1 1204.900024 441.599988 A 2.7 2.7 0 0 1 1207.600024 444.299988 Z" id="XMLID_57_" class="st10" style="fill: rgb(255, 255, 255);" transform="matrix(1, 0, 0, 1, -5.684341886080802e-14, 0)"/><path d="M 1245.600024 444.299988 A 2.7 2.7 0 0 1 1242.900024 446.999988 A 2.7 2.7 0 0 1 1240.200024 444.299988 A 2.7 2.7 0 0 1 1242.900024 441.599988 A 2.7 2.7 0 0 1 1245.600024 444.299988 Z" id="XMLID_71_" class="st10" style="fill: rgb(255, 255, 255);" transform="matrix(1, 0, 0, 1, -5.684341886080802e-14, 0)"/><path d="M 1199.100024 463.100006 A 2.7 2.7 0 0 1 1196.400024 465.800006 A 2.7 2.7 0 0 1 1193.700024 463.100006 A 2.7 2.7 0 0 1 1196.400024 460.400006 A 2.7 2.7 0 0 1 1199.100024 463.100006 Z" id="XMLID_49_" class="st10" style="fill: rgb(255, 255, 255);" transform="matrix(1, 0, 0, 1, -5.684341886080802e-14, 0)"/><path d="M 1253.000049 463.100006 A 2.7 2.7 0 0 1 1250.300049 465.800006 A 2.7 2.7 0 0 1 1247.600049 463.100006 A 2.7 2.7 0 0 1 1250.300049 460.400006 A 2.7 2.7 0 0 1 1253.000049 463.100006 Z" id="XMLID_46_" class="st10" style="fill: rgb(255, 255, 255);" transform="matrix(1, 0, 0, 1, -5.684341886080802e-14, 0)"/><path d="M 1235 463.100006 A 11.5 11.5 0 0 1 1223.5 474.600006 A 11.5 11.5 0 0 1 1212 463.100006 A 11.5 11.5 0 0 1 1223.5 451.600006 A 11.5 11.5 0 0 1 1235 463.100006 Z" id="XMLID_48_" class="st11" style="fill: rgb(93, 198, 199);" transform="matrix(1, 0, 0, 1, -5.684341886080802e-14, 0)"/><path id="XMLID_180_" class="st8" d="M307.1,347.3h-78.9c-29.3,0-53-23.7-53-53v-57.2c0-29.3,23.7-53,53-53h57.7&#10;&#9;&#9;&#9;c24.3,0,44.8,16.4,51,38.7l-10.4-10.8c-3.5-3.6-9.3-3.7-12.9-0.2l0,0c-3.6,3.5-3.7,9.3-0.2,12.9l35,36.1l34.3-36.1&#10;&#9;&#9;&#9;c3.5-3.6,3.3-9.4-0.3-12.9v0c-3.6-3.5-9.4-3.3-12.9,0.3l-13.2,13.9c-5.3-34.1-34.8-60.2-70.3-60.2h-57.7&#10;&#9;&#9;&#9;c-39.3,0-71.2,31.9-71.2,71.2v57.2c0,39.3,31.9,71.2,71.2,71.2h78.9c23.8,0,43.7-16.7,48.8-38.9c1.3-5.7-3-11.1-8.9-11.1h0&#10;&#9;&#9;&#9;c-4.2,0-7.9,2.9-8.9,7C334.9,336.7,322.2,347.3,307.1,347.3z" style="fill: rgb(242, 186, 26);" transform="matrix(1, 0, 0, 1, -5.684341886080802e-14, 0)"/><path id="XMLID_182_" class="st14" d="M1044.4,309.3H835.5c-12.8,0-23.1-10.4-23.1-23.1V150.9c0-10,8.1-18.1,18.1-18.1h226.1&#10;&#9;&#9;&#9;c6.1,0,11.1,5,11.1,11.1v142.2C1067.5,298.9,1057.2,309.3,1044.4,309.3z" style="fill: rgb(57, 56, 84);" transform="matrix(1, 0, 0, 1, -5.684341886080802e-14, 0)"/><path id="XMLID_181_" class="st15" d="M821.1,125.6l102.4-86.7c9.5-8.1,23.5-8.1,33,0l102.4,86.7c5.4,4.7,8.6,11.5,8.6,18.7l0,0&#10;&#9;&#9;&#9;l-127.5,99.2l-127.5-99.2l0,0C812.4,137,815.5,130.2,821.1,125.6z" style="fill: rgb(252, 179, 67);" transform="matrix(1, 0, 0, 1, -5.684341886080802e-14, 0)"/><path d="M 1048.800048828125 81.9000015258789 L 831 81.9000015258789 L 831 158.8000030517578 L 911.9000244140625 221.60000610351562 L 968 221.60000610351562 L 1048.800048828125 158.8000030517578 Z" id="XMLID_178_" class="st10" style="fill: rgb(255, 255, 255);" transform="matrix(1, 0, 0, 1, -5.684341886080802e-14, 0)"/><path d="M 859 115.599998 H 1020.800003 V 122.299998 H 859 V 115.599998 Z" id="XMLID_183_" class="st16" style="fill: rgb(221, 218, 211);" transform="matrix(1, 0, 0, 1, -5.684341886080802e-14, 0)"/><path d="M 859.099976 132.800003 H 1020.899979 V 139.500003 H 859.099976 V 132.800003 Z" id="XMLID_185_" class="st16" style="fill: rgb(221, 218, 211);" transform="matrix(1, 0, 0, 1, -5.684341886080802e-14, 0)"/><path d="M 859.099976 150.600006 H 1020.899979 V 157.300006 H 859.099976 V 150.600006 Z" id="XMLID_189_" class="st16" style="fill: rgb(221, 218, 211);" transform="matrix(1, 0, 0, 1, -5.684341886080802e-14, 0)"/><path d="M 859.200012 167.800003 H 1021.000015 V 174.500003 H 859.200012 V 167.800003 Z" id="XMLID_187_" class="st16" style="fill: rgb(221, 218, 211);" transform="matrix(1, 0, 0, 1, -5.684341886080802e-14, 0)"/><path d="M 1006.2999877929688 191.8000030517578 L 873.4000244140625 191.8000030517578 L 865 185.10000610351562 L 1015.4000244140625 185.10000610351562 Z" id="XMLID_194_" class="st16" style="fill: rgb(221, 218, 211);" transform="matrix(1, 0, 0, 1, -5.684341886080802e-14, 0)"/><path d="M 984.2000122070312 209.10000610351562 L 895.5999755859375 209.10000610351562 L 886.7999877929688 202.3000030517578 L 992.9000244140625 202.3000030517578 Z" id="XMLID_190_" class="st16" style="fill: rgb(221, 218, 211);" transform="matrix(1, 0, 0, 1, -5.684341886080802e-14, 0)"/><path id="XMLID_179_" class="st17" d="M817.2,300.3l108-89.7c8.6-7.1,21-7.1,29.4,0l108,89.7c0,0-5.8,9-18.3,9s-12.5,0-12.5,0&#10;&#9;&#9;&#9;H835.5C835.5,309.3,823.4,310.3,817.2,300.3z" style="fill: rgb(70, 71, 110);" transform="matrix(1, 0, 0, 1, -5.684341886080802e-14, 0)"/><path id="XMLID_210_" class="st17" d="M596.2,74.9c-48.2,0-87.4,29-87.4,64.8c0,25.4,19.5,47.3,48.1,57.9l0,0&#10;&#9;&#9;&#9;c0,0-2.9,19.5-24,30.5c0,0,38.5,7.9,60-23.7l0,0c1.2,0,2,0,3.1,0c48.2,0,87.4-29,87.4-64.8C683.4,103.9,644.4,74.9,596.2,74.9z" style="fill: rgb(70, 71, 110);" transform="matrix(1, 0, 0, 1, -5.684341886080802e-14, 0)"/><path id="XMLID_117_" class="st10" d="M553.2,57.3c-48.2,0-87.4,29-87.4,64.8c0,25.4,19.5,47.3,48.1,57.9l0,0&#10;&#9;&#9;&#9;c0,0-2.9,19.5-24,30.5c0,0,38.5,7.9,60-23.7l0,0c1.2,0,2,0,3.1,0c48.2,0,87.4-29,87.4-64.8C640.5,86.3,601.4,57.3,553.2,57.3z" style="fill: rgb(255, 255, 255);" transform="matrix(1, 0, 0, 1, -5.684341886080802e-14, 0)"/><text id="XMLID_206_" transform="matrix(1, 0, 0, 1, 518.97021484375, 140.3740997314453)" class="st18 st19 st20" style="white-space: pre;  fill: rgb(32, 25, 21);  font-family: 'Futura T';  font-weight: bold;  font-size: 68.2971px; ;  font-weight: Futura T">Hi</text><g id="XMLID_58_" transform="matrix(1, 0, 0, 1, -5.684341886080802e-14, 0)">
			<path id="XMLID_114_" class="st21" d="M271.4,821.1h-91.6c-14.9,0-26.9-10.8-26.9-24.2V570.4c0-13.4,12.1-24.2,26.9-24.2h91.6&#10;&#9;&#9;&#9;&#9;c14.9,0,26.9,10.8,26.9,24.2V797C298.2,810.3,286.2,821.1,271.4,821.1z" style="fill: rgb(154, 153, 153);"/>
			<path id="XMLID_113_" class="st22" d="M152.9,785.9l0,11c0,0-0.4,7.8,5.8,15c6.2,7.1,17.8,9.2,21.2,9.2v-12.5L152.9,785.9z" style="fill: rgb(206, 204, 204);"/>
			<path id="XMLID_116_" class="st22" d="M298.3,785.9l0,11c0,0,0.3,7.7-5.8,15c-6.9,8.3-17.8,9.2-21.2,9.2v-12.5L298.3,785.9z" style="fill: rgb(206, 204, 204);"/>
			<path id="XMLID_107_" class="st23" d="M271.4,809.2h-91.6c-14.9,0-26.9-10.8-26.9-24.2V558.5c0-13.4,12.1-24.2,26.9-24.2h91.6&#10;&#9;&#9;&#9;&#9;c14.9,0,26.9,10.8,26.9,24.2v226.5C298.2,798.4,286.2,809.2,271.4,809.2z" style="fill: rgb(18, 18, 18);"/>
			<path d="M 160.300003 570.900024 H 289.900009 V 765.400024 H 160.300003 V 570.900024 Z" id="XMLID_68_" class="st8" style="fill: rgb(242, 186, 26);"/>
			<path d="M 204.800003 554.900024 A 3 3 0 0 1 201.800003 557.900024 A 3 3 0 0 1 198.800003 554.900024 A 3 3 0 0 1 201.800003 551.900024 A 3 3 0 0 1 204.800003 554.900024 Z" id="XMLID_65_" class="st24" style="fill: rgb(90, 90, 91);"/>
			<path d="M 227.5 545.200012 A 2 2 0 0 1 225.5 547.200012 A 2 2 0 0 1 223.5 545.200012 A 2 2 0 0 1 225.5 543.200012 A 2 2 0 0 1 227.5 545.200012 Z" id="XMLID_64_" class="st24" style="fill: rgb(90, 90, 91);"/>
			<path id="XMLID_63_" class="st24" d="M236,556.5h-20.9c-0.9,0-1.6-0.7-1.6-1.6l0,0c0-0.9,0.7-1.6,1.6-1.6H236&#10;&#9;&#9;&#9;&#9;c0.9,0,1.6,0.7,1.6,1.6l0,0C237.7,555.8,236.9,556.5,236,556.5z" style="fill: rgb(90, 90, 91);"/>
			
				<radialGradient id="XMLID_74_" cx="500.0955" cy="343.6663" r="11.5579" gradientTransform="matrix(4.489659e-011 1 1 -4.489659e-011 -119.2467 290.819)" gradientUnits="userSpaceOnUse">
				<stop offset="1.021794e-007" style="stop-color:#212121"/>
				<stop offset="1" style="stop-color:#010101"/>
			</radialGradient>
			<path d="M 235.999994 790.900024 A 11.6 11.6 0 0 1 224.399994 802.500025 A 11.6 11.6 0 0 1 212.799994 790.900024 A 11.6 11.6 0 0 1 224.399994 779.300024 A 11.6 11.6 0 0 1 235.999994 790.900024 Z" id="XMLID_62_" class="st25" style="fill: url('#XMLID_74_');"/>
			<path d="M 160.3000030517578 570.9000244140625 L 290 765.4000244140625 L 278.8999938964844 765.4000244140625 L 160.3000030517578 584.7000122070312 Z" id="XMLID_61_" class="st26" style="opacity: 0.35; fill: rgb(255, 255, 255);"/>
			<path d="M 210.1999969482422 570.9000244140625 L 289.5 696 L 289.5 668.0999755859375 L 232.10000610351562 570.7999877929688 Z" id="XMLID_60_" class="st26" style="opacity: 0.35; fill: rgb(255, 255, 255);"/>
			<path d="M 160.3000030517578 630 L 253.5 765.4000244140625 L 249.8000030517578 765.4000244140625 L 160.3000030517578 635.2000122070312 Z" id="XMLID_59_" class="st26" style="opacity: 0.35; fill: rgb(255, 255, 255);"/>
			
				<radialGradient id="XMLID_76_" cx="225.5613" cy="791.0886" r="6.9744" gradientTransform="matrix(1 0 0 1.2344 0 -160.5835)" gradientUnits="userSpaceOnUse">
				<stop offset="1.021794e-007" style="stop-color:#212121"/>
				<stop offset="1" style="stop-color:#010101"/>
			</radialGradient>
			<path id="XMLID_115_" class="st27" d="M234.4,817.4h-17.6c-0.5,0-1-0.4-1-1v-1.1c0-0.5,0.4-1,1-1h17.6c0.5,0,1,0.4,1,1v1.1&#10;&#9;&#9;&#9;&#9;C235.3,817,234.9,817.4,234.4,817.4z" style="fill: url('#XMLID_76_');"/>
		</g><path id="XMLID_234_" class="st10" d="M108.4,465.5c13-8.7,27.4-13,43.2-13.7c8.1-0.4,16.2,0.2,24.5,1.7c4.8,0.8,8.3,4.7,8.6,9.3&#10;&#9;&#9;&#9;&#9;c0.2,4.7-3,7.5-7.8,6.7c-8.6-1.5-17-2-25.2-1.3c-9.7,0.8-18.8,3.2-27.1,7.6c-15.3,8.1-25.4,21.4-31.8,38.4&#10;&#9;&#9;&#9;&#9;c-2,5.2-3.4,10.6-4.5,16.3c-1.3,6.2-7.7,7.4-12.4,2.2c-2.1-2.3-2.9-5-2.4-7.8c0.8-4.9,2-9.7,3.5-14.3c3.6-11.4,8.9-21.7,16-30.6&#10;&#9;&#9;&#9;&#9;C97.6,474.2,103,469.3,108.4,465.5z" style="fill: rgb(255, 255, 255);" transform="matrix(1, 0, 0, 1, -8.526512829121202e-14, 0)"/><path id="XMLID_233_" class="st10" d="M128.4,492.6c12-7.9,26.3-10.6,42-9c2.1,0.2,4.3,0.5,6.4,1c3.2,0.7,5.5,3,6.8,6.3&#10;&#9;&#9;&#9;&#9;c1.3,3.4,0.7,6.2-1.5,8.2c-1.6,1.5-3.7,1.6-5.9,1.2c-9.7-1.6-19-1.3-27.7,1.6c-11.3,3.8-19.6,11.3-25,22.4&#10;&#9;&#9;&#9;&#9;c-2.4,5-4.1,10.3-5.2,16c-0.6,2.8-2.1,4.7-4.8,5.1c-5.6,0.9-11-5.1-9.9-11.1c1.3-7.3,3.5-14.1,6.7-20.4&#10;&#9;&#9;&#9;&#9;C114.6,505.2,120.5,498.1,128.4,492.6z" style="fill: rgb(255, 255, 255);" transform="matrix(1, 0, 0, 1, -8.526512829121202e-14, 0)"/><path id="XMLID_232_" class="st10" d="M147.3,520.7c7.5-5,16.2-6.5,25.9-5.2c4.3,0.6,7.8,4.5,8.2,9c0.4,4.3-2.5,7.5-6.8,7&#10;&#9;&#9;&#9;&#9;c-4.7-0.5-9.2-0.4-13.4,1.3c-6.6,2.6-10.8,7.8-13.3,14.8c-0.7,1.9-1,4.1-2.4,5.6c-2.1,2.2-5.6,2.4-8.6,0.4&#10;&#9;&#9;&#9;&#9;c-3.2-2.1-5.1-5.9-4.4-9.2c1.2-6.2,3.8-11.5,7.3-16.2C141.8,525.2,144.3,522.7,147.3,520.7z" style="fill: rgb(255, 255, 255);" transform="matrix(1, 0, 0, 1, -8.526512829121202e-14, 0)"/><path id="XMLID_212_" class="st8" d="M1060.9,655.9c-43.5,48.5-39.4,123.1,9.2,166.6l157.4-175.7&#10;&#9;&#9;&#9;C1179,603.2,1104.4,607.4,1060.9,655.9z" style="fill: rgb(242, 186, 26);" transform="matrix(1, 0, 0, 1, -5.684341886080802e-14, 0)"/><path id="XMLID_214_" class="st7" d="M1227.5,646.7l-157.4,175.7c48.5,43.5,123.1,39.4,166.6-9.2&#10;&#9;&#9;&#9;C1280.1,764.8,1276,690.2,1227.5,646.7z" style="fill: rgb(235, 139, 35);" transform="matrix(1, 0, 0, 1, -5.684341886080802e-14, 0)"/><path id="XMLID_246_" class="st14" d="M1153.2,655.2c-45.8,0-83.1,37.3-83.1,83.1s37.3,83.1,83.1,83.1c45.8,0,83.1-37.3,83.1-83.1&#10;&#9;&#9;&#9;S1199.1,655.2,1153.2,655.2z M1147.5,666.9v25.9c-9.9-0.4-18.7-1.6-26-3c2-8.6,4-14.9,5-18&#10;&#9;&#9;&#9;C1133.1,669.2,1140.2,667.5,1147.5,666.9z M1185.3,690c-9.3,1.7-18.2,2.6-26.4,2.8v-26c7.5,0.6,14.6,2.3,21.2,5&#10;&#9;&#9;&#9;C1181.1,674.6,1183.1,680.9,1185.3,690z M1194.5,679.8c2.7,1.9,5.2,4,7.6,6.2c-1.9,0.5-3.8,1.1-5.6,1.5&#10;&#9;&#9;&#9;C1195.8,684.7,1195.2,682.1,1194.5,679.8z M1188.9,777.2c-10.6-2.1-20.7-3.2-30-3.5v-29.6h32.9&#10;&#9;&#9;&#9;C1191.8,754.7,1191,765.9,1188.9,777.2z M1115.2,744.1h32.3v29.5c-11.2,0.3-21.1,1.7-29.2,3.3&#10;&#9;&#9;&#9;C1116.2,765.7,1115.3,754.6,1115.2,744.1z M1147.5,732.7h-32c0.6-11.6,2-22.3,3.7-31.5c7.9,1.6,17.5,2.9,28.3,3.3V732.7z&#10;&#9;&#9;&#9; M1158.9,732.7v-28.3c8.9-0.3,18.6-1.2,28.8-3.2c1.7,9.1,3.2,19.8,3.8,31.4H1158.9z M1110.4,687.2c-2.1-0.6-4-1.2-5.5-1.7&#10;&#9;&#9;&#9;c2.4-2.2,4.9-4.2,7.5-6C1111.7,681.8,1111,684.4,1110.4,687.2z M1108,698.5c-0.8,4.4-1.6,9.1-2.2,14.1c-0.8,6.1-1.4,12.8-1.8,20.1&#10;&#9;&#9;&#9;h-22.2c1.1-14.2,6.4-27.3,14.7-38C1098.8,695.6,1102.7,697,1108,698.5z M1103.8,744.1c0.1,11.2,1,23.2,3.4,35.5&#10;&#9;&#9;&#9;c-4.3,1.2-7.7,2.4-10.2,3.3c-8.6-10.8-14.1-24.2-15.3-38.8H1103.8z M1109.7,790.8c0.5,1.9,1.1,3.8,1.6,5.8c-2-1.4-3.9-3-5.7-4.6&#10;&#9;&#9;&#9;C1106.9,791.6,1108.2,791.2,1109.7,790.8z M1120.8,788.2c7.4-1.5,16.4-2.7,26.7-3v24.7c-7.4-0.6-14.5-2.3-21.1-5&#10;&#9;&#9;&#9;C1124.2,799.4,1122.3,793.8,1120.8,788.2z M1158.9,785.2c8.6,0.3,17.8,1.3,27.5,3.2c-1.4,5.3-3.1,10.7-5.1,16&#10;&#9;&#9;&#9;c-7,3-14.5,4.9-22.4,5.5V785.2z M1197.6,791c1.1,0.3,2.2,0.6,3.3,0.9c-1.5,1.3-3,2.6-4.6,3.8&#10;&#9;&#9;&#9;C1196.7,794.1,1197.1,792.5,1197.6,791z M1200,779.8c2.3-12.4,3.2-24.5,3.2-35.7h21.4c-1.1,14.5-6.6,27.7-15.1,38.5&#10;&#9;&#9;&#9;C1206.4,781.6,1203.2,780.6,1200,779.8z M1203,732.7c-0.3-6.9-1-13.3-1.7-19c-0.7-5.3-1.5-10.3-2.4-14.9c3.8-1,7.7-2.1,11.6-3.4&#10;&#9;&#9;&#9;c7.9,10.6,13,23.4,14.1,37.3H1203z" style="fill: rgb(57, 56, 84);" transform="matrix(1, 0, 0, 1, -5.684341886080802e-14, 0)"/><path id="XMLID_192_" class="st28" d="M365,639.6h56.5c39.2,0,71,31.8,71,71v36.2c0,31.3,25.5,56.5,56.7,56.3l80.8-0.6" style="fill: none; stroke: rgb(255, 255, 255); stroke-width: 10; stroke-miterlimit: 10;" transform="matrix(1, 0, 0, 1, -2.842170943040401e-14, 0)"/><path id="XMLID_193_" class="st28" d="M590.2,243.5v91.9c0,30,24.3,54.3,54.3,54.3h0c22.6,0,40.9,18.3,40.9,40.9v112.5" style="fill: none; stroke: rgb(255, 255, 255); stroke-width: 10; stroke-miterlimit: 10;" transform="matrix(1, 0, 0, 1, -2.842170943040401e-14, 0)"/><path id="XMLID_191_" class="st28" d="M340.1,389.8v70.6c0,29.2,23.6,53,52.8,53.3l126.4,1.1c18.7,0.2,33.8,15.4,33.8,34.1v0&#10;&#9;&#9;c0,18.8,15.3,34,34.1,33.8l47.9-0.5" style="fill: none; stroke: rgb(255, 255, 255); stroke-width: 10; stroke-miterlimit: 10;" transform="matrix(1, 0, 0, 1, -2.842170943040401e-14, 0)"/><path id="XMLID_196_" class="st28" d="M899.6,355.7v107.5c0,35.3-28.6,63.9-63.9,63.9h-57.5" style="fill: none; stroke: rgb(255, 255, 255); stroke-width: 10; stroke-miterlimit: 10;" transform="matrix(1, 0, 0, 1, -2.842170943040401e-14, 0)"/><path id="XMLID_197_" class="st28" d="M1223.5,534.4l0,7.4c0.1,22.4-18,40.5-40.3,40.6l-213.8,0.5c-32.8,0.1-59.4,26.7-59.4,59.5v0&#10;&#9;&#9;c0,32-25.8,57.9-57.8,58.1l-122.7,0.7" style="fill: none; stroke: rgb(255, 255, 255); stroke-width: 10; stroke-miterlimit: 10;" transform="matrix(1, 0, 0, 1, -2.842170943040401e-14, 0)"/><path d="M 1015.400024 776.900024 L 773.700012 776.900024" id="XMLID_216_" class="st28" style="fill: none; stroke: rgb(255, 255, 255); stroke-width: 10; stroke-miterlimit: 10;" transform="matrix(1, 0, 0, 1, -2.842170943040401e-14, 0)"/><path id="XMLID_54_" class="st29" d="M639.4,736.2c0,0-121.7,41.7-125.4,150.8h373.6c0,0-27.6-121.5-130.7-150.8H639.4z" style="fill: rgb(23, 45, 84);" transform="matrix(1, 0, 0, 1, -5.684341886080802e-14, 0)"/><path id="XMLID_53_" class="st30" d="M635,696.9h130.1c0,0,20.3-30.7,10.4-46.7l-159.2-4L635,696.9z" style="fill: rgb(1, 1, 1);" transform="matrix(1, 0, 0, 1, -5.684341886080802e-14, 0)"/><path id="XMLID_51_" class="st31" d="M757,737.6c-8.6,24.7-30.7,40.2-58,40.3c-27.3,0.1-51-16.5-59.6-41.7&#10;&#9;&#9;&#9;c8.4-7.8,9.2-17.9,8.8-28.6c-0.3-6.1,0-12.1,0-18.1c5.6,5.2,11,10.4,16.6,15.5c18,16.6,43.8,17.7,63.6,3.6&#10;&#9;&#9;&#9;c8.1-5.7,13.5-14,21.9-19.1C750.8,705.6,748.9,722.3,757,737.6z" style="fill: rgb(232, 174, 140);" transform="matrix(1, 0, 0, 1, -5.684341886080802e-14, 0)"/><path id="XMLID_50_" class="st32" d="M750.4,689.4c-8.4,5.2-13.8,13.4-21.9,19.1c-19.8,14-45.6,13-63.6-3.6&#10;&#9;&#9;&#9;c-5.6-5-11-10.3-16.6-15.5c-0.7-2.1-2.8-4.5,0-6.7c6.7,6,13,12.6,20.3,17.7c22.7,16.3,47.4,14.2,67.9-4.7&#10;&#9;&#9;&#9;c5.3-4.9,10.4-9.9,15.8-14.8C752.7,684,751.7,686.6,750.4,689.4z" style="fill: rgb(213, 147, 116);" transform="matrix(1, 0, 0, 1, -5.684341886080802e-14, 0)"/><path id="XMLID_47_" class="st33" d="M639.4,736.2c0,0,10.3,39.3,58.7,41.7c0,0,42.9,2.7,58.7-40.3l-39.7,149.5h-37.5L639.4,736.2&#10;&#9;&#9;&#9;z" style="fill: rgb(245, 250, 241);" transform="matrix(1, 0, 0, 1, -5.684341886080802e-14, 0)"/><path id="XMLID_52_" class="st34" d="M644.4,681.6c-14.5-14.5-23.1-31.8-25.2-52.2c-0.3-2.5-1.4-4.2-3.5-5.6&#10;&#9;&#9;&#9;c-17.4-13-17.6-32.5-19.5-51.3c-0.7-7,3.2-8.6,9.2-7.5c1.7,5.9,3.3,11.7,4.9,17.6c0.5,1.9,1.5,3.9,3.5,3.9c3.3,0,2.9-2.9,2.9-5&#10;&#9;&#9;&#9;c0.1-3.5,0.1-6.8,0-10.3c-0.7-17.7,0.5-35,7.1-51.6c4.3-10.8,10.8-18,23.9-17c9.4,0.7,19,0.1,28.4,2.1c9.5,1.9,19.3,4.6,29.3,2.1&#10;&#9;&#9;&#9;c13.4-3.3,27.1-4.3,40.7-4c16,0.4,21.2,3.5,26.2,18.4c5.6,16.3,8.1,33.2,7.4,50.5c-0.3,4.9-1.5,10.4,2.1,16.6&#10;&#9;&#9;&#9;c6.1-7.5,4.9-16.3,9.1-23c6-1.4,9.9,0,9.4,7.1c-1.5,19-2.1,38.4-19.3,51.5c-2.2,1.8-3.5,3.8-3.6,6.6c-2.1,19.1-9.8,35.7-23.4,49.4&#10;&#9;&#9;&#9;c-5.6,5.2-11,10.6-16.6,15.8c-21.6,20.1-47.7,22.1-71.8,4.9C658.1,694.8,651.5,687.8,644.4,681.6z" style="fill: rgb(240, 188, 152);" transform="matrix(1, 0, 0, 1, -5.684341886080802e-14, 0)"/><path d="M 667.000024 600.599976 A 7.1 7.1 0 0 1 659.900024 607.699975 A 7.1 7.1 0 0 1 652.800025 600.599976 A 7.1 7.1 0 0 1 659.900024 593.499976 A 7.1 7.1 0 0 1 667.000024 600.599976 Z" id="XMLID_44_" class="st35" style="fill: rgb(2, 2, 2);" transform="matrix(1, 0, 0, 1, -5.684341886080802e-14, 0)"/><path id="XMLID_28_" class="st18" d="M635.1,591.3c0,0,17.3-20.5,43.9-4.9l6.4-9.2C685.4,577.2,647.8,561.7,635.1,591.3z" style="fill: rgb(255, 232, 84);" transform="matrix(1, 0, 0, 1, -5.684341886080802e-14, 0)"/><path d="M 750.300012 601.400024 A 7.1 7.1 0 0 1 743.200012 608.500024 A 7.1 7.1 0 0 1 736.100012 601.400024 A 7.1 7.1 0 0 1 743.200012 594.300025 A 7.1 7.1 0 0 1 750.300012 601.400024 Z" id="XMLID_24_" class="st35" style="fill: rgb(2, 2, 2);" transform="matrix(1, 0, 0, 1, -5.684341886080802e-14, 0)"/><path id="XMLID_23_" class="st18" d="M767.9,592.1c0,0-17.3-20.5-43.9-4.9l-6.4-9.2C717.7,578,755.2,562.6,767.9,592.1z" style="fill: rgb(32, 25, 21);" transform="matrix(1, 0, 0, 1, -5.684341886080802e-14, 0)"/><path id="XMLID_22_" class="st36" d="M678.3,653.2H721c0,0-0.7,24-21.5,24C679,677.4,678.3,653.2,678.3,653.2z" style="fill: rgb(241, 87, 81);" transform="matrix(1, 0, 0, 1, -5.684341886080802e-14, 0)"/><path d="M 678.7999877929688 657.2999877929688 L 720.7000122070312 657.2999877929688 L 721.2000122070312 653.2000122070312 L 678.2999877929688 653.2000122070312 Z" id="XMLID_17_" class="st37" style="fill: rgb(247, 248, 248);" transform="matrix(1, 0, 0, 1, -5.684341886080802e-14, 0)"/><path id="XMLID_1108_" class="st18" d="M635.2,693.9c-0.7,3.2,0.7,8-5.9,5.7c-6.1-2.1-11.8-3.9-14.6-10.4&#10;&#9;&#9;&#9;c-21.9-49.9-31.3-101.7-19.3-155.4c10.8-48.5,50.2-77.8,99.9-80.2c63.1-3.1,105.7,40.9,112.4,98.5c5.4,47-3.9,91.1-21.6,133.9&#10;&#9;&#9;&#9;c-2.9,7.2-8.1,10.8-15.1,13.1c-5.4,1.8-8.8-0.3-8.5-4.7c3.5-14.6,7.9-28.7,10.4-44.9c4.4-23.2,3.1-40.3,3.1-60.6&#10;&#9;&#9;&#9;c0-5.7-4.6-3.8-8.2-3.5c-10.4,0.9-20.5,3.9-31.5,2.5c-26.9-3.5-47.7-17-66.1-35.8c-14.9-15.2-18.7-14.8-32.4,2.5&#10;&#9;&#9;&#9;c-1.4,1.7-2.5,3.5-3.5,5.6c-13.5,28.4-11.6,58.3-7.7,88.3C627.9,664,628.1,679.6,635.2,693.9z" style="fill: rgb(240, 209, 84);" transform="matrix(1, 0, 0, 1, -5.684341886080802e-14, 0)"/><path id="XMLID_3_" class="st38" d="M702,636c-1.8,0-7.8-4.1-8.9-4.9c-0.5-0.4-0.8-0.9-0.9-1.6c-0.1-0.7,0.2-1.2,0.6-1.7&#10;&#9;&#9;&#9;&#9;c0.4-0.4,0.8-0.9,1.4-1.5c1.3-1.4,3.1-3.3,5.2-5.7c4.9-5.5-0.1-26.1-0.1-26.2l0.9-0.2c0.2,0.8,5.2,21.3-0.1,27.1&#10;&#9;&#9;&#9;&#9;c-2.1,2.4-3.9,4.3-5.2,5.7c-0.6,0.6-1,1.1-1.4,1.5c-0.4,0.4-0.4,0.7-0.4,0.9c0,0.4,0.2,0.7,0.5,0.9c3.4,2.3,7.3,4.8,8.4,4.8V636z&#10;&#9;&#9;&#9;&#9;" style="fill: rgb(139, 86, 36);" transform="matrix(1, 0, 0, 1, -8.526512829121202e-14, 0)"/><path d="M 662.900024 595.799988 A 1.5 1.5 0 0 1 661.400024 597.299988 A 1.5 1.5 0 0 1 659.900024 595.799988 A 1.5 1.5 0 0 1 661.400024 594.299988 A 1.5 1.5 0 0 1 662.900024 595.799988 Z" id="XMLID_16_" class="st39" style="fill: rgb(247, 250, 252);" transform="matrix(1, 0, 0, 1, -5.684341886080802e-14, 0)"/><path d="M 747.200012 597.299988 A 1.5 1.5 0 0 1 745.700012 598.799988 A 1.5 1.5 0 0 1 744.200012 597.299988 A 1.5 1.5 0 0 1 745.700012 595.799988 A 1.5 1.5 0 0 1 747.200012 597.299988 Z" id="XMLID_20_" class="st39" style="fill: rgb(247, 250, 252);" transform="matrix(1, 0, 0, 1, -5.684341886080802e-14, 0)"/><path id="XMLID_15_" class="st40" d="M648.3,626.7c-1.7,0-1.7,2.5,0,2.5S650,626.7,648.3,626.7z" style="fill: rgb(246, 149, 133);" transform="matrix(1, 0, 0, 1, -5.684341886080802e-14, 0)"/><path id="XMLID_14_" class="st40" d="M657.8,626.7c-1.7,0-1.7,2.5,0,2.5S659.5,626.7,657.8,626.7z" style="fill: rgb(246, 149, 133);" transform="matrix(1, 0, 0, 1, -5.684341886080802e-14, 0)"/><path id="XMLID_13_" class="st40" d="M653,631.6c-1.7,0-1.7,2.5,0,2.5C654.7,634.1,654.6,631.6,653,631.6z" style="fill: rgb(246, 149, 133);" transform="matrix(1, 0, 0, 1, -5.684341886080802e-14, 0)"/><path id="XMLID_12_" class="st40" d="M662.7,631.6c-1.7,0-1.7,2.5,0,2.5S664.3,631.6,662.7,631.6z" style="fill: rgb(246, 149, 133);" transform="matrix(1, 0, 0, 1, -5.684341886080802e-14, 0)"/><path id="XMLID_8_" class="st40" d="M657.8,637.1c-1.7,0-1.7,2.5,0,2.5S659.5,637.1,657.8,637.1z" style="fill: rgb(246, 149, 133);" transform="matrix(1, 0, 0, 1, -5.684341886080802e-14, 0)"/><path id="XMLID_7_" class="st40" d="M667.6,626.7c-1.7,0-1.7,2.5,0,2.5C669.3,629.2,669.3,626.7,667.6,626.7z" style="fill: rgb(246, 149, 133);" transform="matrix(1, 0, 0, 1, -5.684341886080802e-14, 0)"/><path id="XMLID_6_" class="st40" d="M734.5,627.7c-1.7,0-1.7,2.5,0,2.5C736.2,630.3,736.2,627.7,734.5,627.7z" style="fill: rgb(246, 149, 133);" transform="matrix(1, 0, 0, 1, -5.684341886080802e-14, 0)"/><path id="XMLID_5_" class="st40" d="M744,627.7c-1.7,0-1.7,2.5,0,2.5S745.7,627.7,744,627.7z" style="fill: rgb(246, 149, 133);" transform="matrix(1, 0, 0, 1, -5.684341886080802e-14, 0)"/><path id="XMLID_19_" class="st40" d="M739.2,632.6c-1.7,0-1.7,2.5,0,2.5C740.9,635.1,740.8,632.6,739.2,632.6z" style="fill: rgb(246, 149, 133);" transform="matrix(1, 0, 0, 1, -5.684341886080802e-14, 0)"/><path id="XMLID_11_" class="st40" d="M749,632.6c-1.7,0-1.7,2.5,0,2.5C750.5,635.1,750.6,632.6,749,632.6z" style="fill: rgb(246, 149, 133);" transform="matrix(1, 0, 0, 1, -5.684341886080802e-14, 0)"/><path id="XMLID_10_" class="st40" d="M744,637.9c-1.7,0-1.7,2.5,0,2.5S745.7,637.9,744,637.9z" style="fill: rgb(246, 149, 133);" transform="matrix(1, 0, 0, 1, -5.684341886080802e-14, 0)"/><path id="XMLID_9_" class="st40" d="M753.8,627.7c-1.7,0-1.7,2.5,0,2.5C755.5,630.3,755.5,627.7,753.8,627.7z" style="fill: rgb(246, 149, 133);" transform="matrix(1, 0, 0, 1, -5.684341886080802e-14, 0)"/><path d="M 639.4000244140625 736.2000122070312 L 596.0999755859375 811.5999755859375 L 654.2999877929688 862.0999755859375 L 637.2999877929688 886.9000244140625 L 679.7999877929688 887.0999755859375 Z" id="XMLID_2_" class="st41" style="fill: rgb(34, 79, 142);" transform="matrix(1, 0, 0, 1, -5.684341886080802e-14, 0)"/><path d="M 756.9000244140625 736.2000122070312 L 800.2999877929688 811.5999755859375 L 742.0999755859375 862.0999755859375 L 759 886.9000244140625 L 716.5 887.0999755859375 Z" id="XMLID_4_" class="st41" style="fill: rgb(34, 79, 142);" transform="matrix(1, 0, 0, 1, -5.684341886080802e-14, 0)"/><path d="M 770.799988 861.599976 H 822.299988 V 873.699976 H 770.799988 V 861.599976 Z" id="XMLID_1_" class="st42" style="fill: rgb(214, 215, 216);" transform="matrix(1, 0, 0, 1, -5.684341886080802e-14, 0)"/>
<path d="M 1311.6265869140625 359.4342041015625 L 1315.9547119140625 352.22064208984375 L 1289.98583984375 347.89251708984375" style="fill: rgb(240, 209, 84); fill-opacity: 1; stroke: rgb(0, 0, 0); stroke-opacity: 1; stroke-width: 0; paint-order: fill;"/></svg>